<svg xmlns="http://www.w3.org/2000/svg" xmlns:xlink="http://www.w3.org/1999/xlink" width="303" zoomAndPan="magnify" viewBox="0 0 227.25 75.749997" height="101" preserveAspectRatio="xMidYMid meet" version="1.0"><defs><g/><clipPath id="12e7c8e4e8"><path d="M 0 0 L 226.503906 0 L 226.503906 75.5 L 0 75.5 Z M 0 0 " clip-rule="nonzero"/></clipPath><clipPath id="89ad1e160b"><path d="M 0 6.726562 L 45.320312 6.726562 L 45.320312 57.710938 L 0 57.710938 Z M 0 6.726562 " clip-rule="nonzero"/></clipPath><clipPath id="1f15f89cde"><path d="M 0 6.726562 L 45.320312 6.726562 L 45.320312 12.257812 L 0 12.257812 Z M 0 6.726562 " clip-rule="nonzero"/></clipPath><clipPath id="d7f6a59cd1"><path d="M 0 52.296875 L 45.320312 52.296875 L 45.320312 57.691406 L 0 57.691406 Z M 0 52.296875 " clip-rule="nonzero"/></clipPath><clipPath id="3ea8b7f5a2"><path d="M 0 8.886719 L 6.609375 8.886719 L 6.609375 57.574219 L 0 57.574219 Z M 0 8.886719 " clip-rule="nonzero"/></clipPath><clipPath id="94ef3b6807"><path d="M 38.460938 6.636719 L 45.320312 6.636719 L 45.320312 57.082031 L 38.460938 57.082031 Z M 38.460938 6.636719 " clip-rule="nonzero"/></clipPath><clipPath id="2c93fa6113"><path d="M 24.613281 14.804688 L 44.976562 14.804688 L 44.976562 32.203125 L 24.613281 32.203125 Z M 24.613281 14.804688 " clip-rule="nonzero"/></clipPath><clipPath id="1516eeaf1c"><path d="M 5.066406 33.75 L 23.140625 33.75 L 23.140625 49.664062 L 5.066406 49.664062 Z M 5.066406 33.75 " clip-rule="nonzero"/></clipPath><clipPath id="d04c7e4622"><path d="M 16.109375 32.152344 L 20.289062 32.152344 L 20.289062 34.714844 L 16.109375 34.714844 Z M 16.109375 32.152344 " clip-rule="nonzero"/></clipPath><clipPath id="7f73a3c7f7"><path d="M 20 32 L 23 32 L 23 35 L 20 35 Z M 20 32 " clip-rule="nonzero"/></clipPath><clipPath id="bdaf4216e6"><path d="M 22.339844 31.503906 L 22.910156 33.585938 L 20.828125 34.160156 L 20.257812 32.078125 Z M 22.339844 31.503906 " clip-rule="nonzero"/></clipPath><clipPath id="8fbbba9973"><path d="M 22.339844 31.503906 L 22.910156 33.585938 L 20.828125 34.160156 L 20.257812 32.078125 Z M 22.339844 31.503906 " clip-rule="nonzero"/></clipPath><clipPath id="9c903a59a0"><path d="M 18 32 L 21 32 L 21 35 L 18 35 Z M 18 32 " clip-rule="nonzero"/></clipPath><clipPath id="752fab201a"><path d="M 18.523438 32.554688 L 20.484375 32.058594 L 20.945312 33.890625 L 18.984375 34.386719 Z M 18.523438 32.554688 " clip-rule="nonzero"/></clipPath><clipPath id="ba252652e2"><path d="M 18.523438 32.554688 L 20.484375 32.058594 L 20.945312 33.890625 L 18.984375 34.386719 Z M 18.523438 32.554688 " clip-rule="nonzero"/></clipPath><clipPath id="d28782be3b"><path d="M 22 30 L 25 30 L 25 33 L 22 33 Z M 22 30 " clip-rule="nonzero"/></clipPath><clipPath id="6cb77705bc"><path d="M 22.699219 32.828125 L 22.191406 30.871094 L 24.148438 30.363281 L 24.65625 32.320312 Z M 22.699219 32.828125 " clip-rule="nonzero"/></clipPath><clipPath id="edf30caf45"><path d="M 22.699219 32.828125 L 22.191406 30.871094 L 24.148438 30.363281 L 24.65625 32.320312 Z M 22.699219 32.828125 " clip-rule="nonzero"/></clipPath><clipPath id="0efdaa593d"><path d="M 22 29 L 26 29 L 26 32 L 22 32 Z M 22 29 " clip-rule="nonzero"/></clipPath><clipPath id="b1f3be4cd1"><path d="M 23.230469 28.933594 L 25.0625 29.390625 L 24.605469 31.222656 L 22.773438 30.769531 Z M 23.230469 28.933594 " clip-rule="nonzero"/></clipPath><clipPath id="d9b9f6e6a0"><path d="M 23.230469 28.933594 L 25.0625 29.390625 L 24.605469 31.222656 L 22.773438 30.769531 Z M 23.230469 28.933594 " clip-rule="nonzero"/></clipPath><clipPath id="b24ee38bf1"><path d="M 24.308594 30.859375 L 24.984375 30.859375 L 24.984375 32.074219 L 24.308594 32.074219 Z M 24.308594 30.859375 " clip-rule="nonzero"/></clipPath></defs><g clip-path="url(#12e7c8e4e8)"><path fill="#ffffff" d="M 0 0 L 226.503906 0 L 226.503906 75.5 L 0 75.5 Z M 0 0 " fill-opacity="1" fill-rule="nonzero"/></g><g fill="#000000" fill-opacity="1"><g transform="translate(49.481648, 49.164649)"><g><path d="M 0.515625 -17.0625 C 0.515625 -18.5 0.835938 -19.6875 1.484375 -20.625 C 2.128906 -21.570312 2.992188 -22.316406 4.078125 -22.859375 C 5.160156 -23.410156 6.34375 -23.804688 7.625 -24.046875 C 8.914062 -24.285156 10.207031 -24.40625 11.5 -24.40625 C 13 -24.40625 14.40625 -24.285156 15.71875 -24.046875 C 17.039062 -23.804688 18.207031 -23.484375 19.21875 -23.078125 C 20.238281 -22.679688 21.03125 -22.242188 21.59375 -21.765625 C 22.164062 -21.296875 22.453125 -20.804688 22.453125 -20.296875 C 22.453125 -19.546875 22.273438 -18.8125 21.921875 -18.09375 C 21.566406 -17.382812 21.140625 -16.800781 20.640625 -16.34375 C 20.140625 -15.882812 19.6875 -15.65625 19.28125 -15.65625 C 18.375 -15.65625 17.507812 -15.882812 16.6875 -16.34375 C 15.863281 -16.800781 15.066406 -17.363281 14.296875 -18.03125 C 13.523438 -18.707031 12.757812 -19.375 12 -20.03125 C 11.238281 -20.6875 10.460938 -21.242188 9.671875 -21.703125 C 8.890625 -22.160156 8.066406 -22.390625 7.203125 -22.390625 C 6.816406 -22.390625 6.40625 -22.304688 5.96875 -22.140625 C 5.539062 -21.984375 5.179688 -21.734375 4.890625 -21.390625 C 4.609375 -21.054688 4.46875 -20.601562 4.46875 -20.03125 C 4.46875 -19.488281 4.691406 -19.035156 5.140625 -18.671875 C 5.597656 -18.304688 6.21875 -18.007812 7 -17.78125 C 7.789062 -17.550781 8.664062 -17.347656 9.625 -17.171875 C 11.125 -16.890625 12.628906 -16.550781 14.140625 -16.15625 C 15.660156 -15.757812 17.039062 -15.21875 18.28125 -14.53125 C 19.519531 -13.851562 20.515625 -12.960938 21.265625 -11.859375 C 22.015625 -10.753906 22.390625 -9.382812 22.390625 -7.75 C 22.390625 -6.175781 22.039062 -4.851562 21.34375 -3.78125 C 20.644531 -2.71875 19.757812 -1.875 18.6875 -1.25 C 17.625 -0.625 16.503906 -0.175781 15.328125 0.09375 C 14.160156 0.375 13.101562 0.515625 12.15625 0.515625 C 10.988281 0.515625 9.738281 0.429688 8.40625 0.265625 C 7.082031 0.109375 5.832031 -0.101562 4.65625 -0.375 C 3.488281 -0.644531 2.535156 -0.96875 1.796875 -1.34375 C 1.054688 -1.71875 0.6875 -2.125 0.6875 -2.5625 C 0.6875 -2.925781 0.785156 -3.453125 0.984375 -4.140625 C 1.191406 -4.835938 1.457031 -5.554688 1.78125 -6.296875 C 2.113281 -7.035156 2.472656 -7.660156 2.859375 -8.171875 C 3.253906 -8.679688 3.617188 -8.9375 3.953125 -8.9375 C 4.484375 -8.9375 5.097656 -8.707031 5.796875 -8.25 C 6.503906 -7.800781 7.328125 -7.28125 8.265625 -6.6875 C 9.210938 -6.09375 10.300781 -5.566406 11.53125 -5.109375 C 12.757812 -4.660156 14.160156 -4.4375 15.734375 -4.4375 C 16.523438 -4.4375 17.285156 -4.570312 18.015625 -4.84375 C 18.742188 -5.113281 19.347656 -5.488281 19.828125 -5.96875 C 20.304688 -6.445312 20.546875 -6.984375 20.546875 -7.578125 C 20.546875 -7.984375 20.421875 -8.257812 20.171875 -8.40625 C 19.921875 -8.5625 19.566406 -8.640625 19.109375 -8.640625 C 18.472656 -8.640625 17.660156 -8.5625 16.671875 -8.40625 C 15.679688 -8.257812 14.535156 -8.1875 13.234375 -8.1875 C 11.847656 -8.1875 10.414062 -8.332031 8.9375 -8.625 C 7.457031 -8.925781 6.082031 -9.421875 4.8125 -10.109375 C 3.539062 -10.804688 2.503906 -11.722656 1.703125 -12.859375 C 0.910156 -14.003906 0.515625 -15.40625 0.515625 -17.0625 Z M 0.515625 -17.0625 "/></g></g></g><g fill="#000000" fill-opacity="1"><g transform="translate(72.450808, 49.164649)"><g><path d="M 0 -20.234375 C 0 -20.421875 0.0546875 -20.535156 0.171875 -20.578125 C 0.285156 -20.617188 0.351562 -20.65625 0.375 -20.6875 C 0.644531 -20.820312 1.070312 -21.03125 1.65625 -21.3125 C 2.238281 -21.59375 2.898438 -21.910156 3.640625 -22.265625 C 4.378906 -22.617188 5.132812 -22.953125 5.90625 -23.265625 C 6.675781 -23.585938 7.390625 -23.859375 8.046875 -24.078125 C 8.710938 -24.296875 9.25 -24.40625 9.65625 -24.40625 C 10.15625 -24.40625 10.453125 -24.265625 10.546875 -23.984375 C 10.640625 -23.710938 10.6875 -23.40625 10.6875 -23.0625 L 10.6875 -4.03125 C 10.6875 -3.050781 10.769531 -2.25 10.9375 -1.625 C 11.101562 -1 11.414062 -0.457031 11.875 0 L 0.4375 0 C 0.894531 -0.457031 1.207031 -1 1.375 -1.625 C 1.550781 -2.25 1.640625 -3.050781 1.640625 -4.03125 L 1.640625 -17.125 C 1.640625 -17.257812 1.632812 -17.507812 1.625 -17.875 C 1.613281 -18.238281 1.53125 -18.609375 1.375 -18.984375 C 1.226562 -19.359375 0.941406 -19.617188 0.515625 -19.765625 C 0.460938 -19.785156 0.363281 -19.816406 0.21875 -19.859375 C 0.0703125 -19.898438 0 -20.023438 0 -20.234375 Z M 6.078125 -36.140625 C 7.578125 -36.140625 8.78125 -35.679688 9.6875 -34.765625 C 10.601562 -33.859375 11.0625 -32.65625 11.0625 -31.15625 C 11.0625 -29.65625 10.601562 -28.445312 9.6875 -27.53125 C 8.78125 -26.625 7.578125 -26.171875 6.078125 -26.171875 C 4.578125 -26.171875 3.367188 -26.625 2.453125 -27.53125 C 1.546875 -28.445312 1.09375 -29.65625 1.09375 -31.15625 C 1.09375 -32.65625 1.546875 -33.859375 2.453125 -34.765625 C 3.367188 -35.679688 4.578125 -36.140625 6.078125 -36.140625 Z M 6.078125 -36.140625 "/></g></g></g><g fill="#000000" fill-opacity="1"><g transform="translate(84.498524, 49.164649)"><g><path d="M 12.109375 0 L 0.6875 0 C 1.132812 -0.457031 1.441406 -1 1.609375 -1.625 C 1.785156 -2.25 1.875 -3.050781 1.875 -4.03125 L 1.875 -19.859375 C 1.875 -20.835938 1.785156 -21.640625 1.609375 -22.265625 C 1.441406 -22.890625 1.132812 -23.429688 0.6875 -23.890625 L 9.046875 -23.890625 C 9.773438 -23.890625 10.269531 -23.632812 10.53125 -23.125 C 10.789062 -22.613281 10.921875 -21.925781 10.921875 -21.0625 L 10.921875 -20.46875 C 10.921875 -20.0625 10.941406 -19.820312 10.984375 -19.75 C 11.035156 -19.6875 11.09375 -19.65625 11.15625 -19.65625 C 11.425781 -19.65625 11.691406 -19.8125 11.953125 -20.125 C 12.222656 -20.445312 12.53125 -20.847656 12.875 -21.328125 C 13.226562 -21.804688 13.660156 -22.273438 14.171875 -22.734375 C 14.691406 -23.203125 15.34375 -23.597656 16.125 -23.921875 C 16.90625 -24.242188 17.878906 -24.40625 19.046875 -24.40625 C 20.703125 -24.40625 21.945312 -23.976562 22.78125 -23.125 C 23.613281 -22.269531 24.175781 -21.238281 24.46875 -20.03125 C 24.582031 -19.800781 24.707031 -19.679688 24.84375 -19.671875 C 24.976562 -19.660156 25.066406 -19.65625 25.109375 -19.65625 C 25.390625 -19.65625 25.660156 -19.8125 25.921875 -20.125 C 26.179688 -20.445312 26.488281 -20.847656 26.84375 -21.328125 C 27.195312 -21.804688 27.628906 -22.273438 28.140625 -22.734375 C 28.648438 -23.203125 29.296875 -23.597656 30.078125 -23.921875 C 30.867188 -24.242188 31.84375 -24.40625 33 -24.40625 C 34.25 -24.40625 35.253906 -24.160156 36.015625 -23.671875 C 36.773438 -23.179688 37.359375 -22.53125 37.765625 -21.71875 C 38.179688 -20.914062 38.460938 -20.046875 38.609375 -19.109375 C 38.753906 -18.171875 38.828125 -17.257812 38.828125 -16.375 L 38.875 -9.859375 L 38.875 -4.03125 C 38.875 -3.050781 38.957031 -2.25 39.125 -1.625 C 39.289062 -1 39.601562 -0.457031 40.0625 0 L 28.625 0 C 29.082031 -0.457031 29.394531 -1 29.5625 -1.625 C 29.738281 -2.25 29.828125 -3.050781 29.828125 -4.03125 L 29.828125 -15.125 C 29.828125 -15.914062 29.6875 -16.617188 29.40625 -17.234375 C 29.132812 -17.847656 28.625 -18.15625 27.875 -18.15625 C 27.144531 -18.15625 26.484375 -17.859375 25.890625 -17.265625 C 25.304688 -16.671875 24.96875 -15.554688 24.875 -13.921875 L 24.90625 -9.859375 L 24.90625 -4.03125 C 24.90625 -3.050781 24.988281 -2.25 25.15625 -1.625 C 25.332031 -1 25.648438 -0.457031 26.109375 0 L 14.671875 0 C 15.128906 -0.457031 15.441406 -1 15.609375 -1.625 C 15.785156 -2.25 15.875 -3.050781 15.875 -4.03125 L 15.875 -15.125 C 15.875 -15.914062 15.734375 -16.617188 15.453125 -17.234375 C 15.179688 -17.847656 14.671875 -18.15625 13.921875 -18.15625 C 13.398438 -18.15625 12.910156 -18.007812 12.453125 -17.71875 C 11.992188 -17.4375 11.625 -16.945312 11.34375 -16.25 C 11.0625 -15.5625 10.921875 -14.582031 10.921875 -13.3125 L 10.921875 -4.03125 C 10.921875 -3.050781 11.003906 -2.25 11.171875 -1.625 C 11.347656 -1 11.660156 -0.457031 12.109375 0 Z M 12.109375 0 "/></g></g></g><g fill="#000000" fill-opacity="1"><g transform="translate(124.737214, 49.164649)"><g><path d="M -0.34375 -20.234375 C -0.34375 -20.421875 -0.285156 -20.535156 -0.171875 -20.578125 C -0.0546875 -20.617188 0.0078125 -20.65625 0.03125 -20.6875 C 0.300781 -20.789062 0.738281 -20.976562 1.34375 -21.25 C 1.945312 -21.53125 2.640625 -21.847656 3.421875 -22.203125 C 4.210938 -22.554688 5.003906 -22.898438 5.796875 -23.234375 C 6.597656 -23.578125 7.335938 -23.859375 8.015625 -24.078125 C 8.703125 -24.296875 9.25 -24.40625 9.65625 -24.40625 C 10.15625 -24.40625 10.453125 -24.265625 10.546875 -23.984375 C 10.640625 -23.710938 10.6875 -23.40625 10.6875 -23.0625 L 10.6875 -22.046875 C 10.75 -21.890625 10.828125 -21.789062 10.921875 -21.75 C 11.015625 -21.71875 11.117188 -21.703125 11.234375 -21.703125 C 11.410156 -21.703125 11.628906 -21.835938 11.890625 -22.109375 C 12.148438 -22.378906 12.492188 -22.691406 12.921875 -23.046875 C 13.359375 -23.398438 13.898438 -23.710938 14.546875 -23.984375 C 15.203125 -24.265625 16.003906 -24.40625 16.953125 -24.40625 C 18.640625 -24.40625 20.09375 -24.019531 21.3125 -23.25 C 22.53125 -22.488281 23.53125 -21.484375 24.3125 -20.234375 C 25.09375 -18.984375 25.671875 -17.59375 26.046875 -16.0625 C 26.429688 -14.539062 26.625 -13.007812 26.625 -11.46875 C 26.625 -9.257812 26.242188 -7.25 25.484375 -5.4375 C 24.734375 -3.632812 23.632812 -2.191406 22.1875 -1.109375 C 20.75 -0.0234375 19.003906 0.515625 16.953125 0.515625 C 16.066406 0.515625 15.132812 0.296875 14.15625 -0.140625 C 13.175781 -0.585938 12.222656 -1.539062 11.296875 -3 C 11.179688 -3.1875 11.050781 -3.316406 10.90625 -3.390625 C 10.757812 -3.472656 10.6875 -3.390625 10.6875 -3.140625 L 10.6875 7.4375 C 10.6875 8.300781 10.550781 8.984375 10.28125 9.484375 C 10.019531 9.984375 9.523438 10.234375 8.796875 10.234375 L 0.4375 10.234375 C 0.894531 9.785156 1.207031 9.242188 1.375 8.609375 C 1.550781 7.984375 1.640625 7.179688 1.640625 6.203125 L 1.640625 -17.125 C 1.640625 -17.257812 1.625 -17.503906 1.59375 -17.859375 C 1.570312 -18.210938 1.460938 -18.570312 1.265625 -18.9375 C 1.078125 -19.300781 0.710938 -19.578125 0.171875 -19.765625 C 0.128906 -19.785156 0.0351562 -19.816406 -0.109375 -19.859375 C -0.265625 -19.898438 -0.34375 -20.023438 -0.34375 -20.234375 Z M 10.6875 -15.796875 L 10.6875 -9.140625 C 10.6875 -8.660156 10.710938 -8.117188 10.765625 -7.515625 C 10.828125 -6.921875 10.957031 -6.332031 11.15625 -5.75 C 11.363281 -5.164062 11.664062 -4.6875 12.0625 -4.3125 C 12.457031 -3.9375 13 -3.75 13.6875 -3.75 C 14.644531 -3.75 15.390625 -4.007812 15.921875 -4.53125 C 16.453125 -5.0625 16.835938 -5.753906 17.078125 -6.609375 C 17.316406 -7.460938 17.460938 -8.398438 17.515625 -9.421875 C 17.578125 -10.441406 17.609375 -11.441406 17.609375 -12.421875 C 17.609375 -13.359375 17.550781 -14.3125 17.4375 -15.28125 C 17.320312 -16.257812 17.101562 -17.171875 16.78125 -18.015625 C 16.46875 -18.859375 16.019531 -19.535156 15.4375 -20.046875 C 14.863281 -20.554688 14.097656 -20.8125 13.140625 -20.8125 C 12.617188 -20.8125 12.191406 -20.632812 11.859375 -20.28125 C 11.523438 -19.9375 11.273438 -19.492188 11.109375 -18.953125 C 10.941406 -18.421875 10.828125 -17.867188 10.765625 -17.296875 C 10.710938 -16.734375 10.6875 -16.234375 10.6875 -15.796875 Z M 10.6875 -15.796875 "/></g></g></g><g fill="#000000" fill-opacity="1"><g transform="translate(152.211475, 49.164649)"><g><path d="M 0.859375 -5.328125 C 0.859375 -7.140625 1.21875 -8.734375 1.9375 -10.109375 C 2.664062 -11.492188 3.648438 -12.679688 4.890625 -13.671875 C 6.128906 -14.660156 7.515625 -15.472656 9.046875 -16.109375 C 10.585938 -16.742188 12.15625 -17.234375 13.75 -17.578125 C 14.25 -17.691406 14.578125 -17.894531 14.734375 -18.1875 C 14.898438 -18.476562 14.984375 -18.773438 14.984375 -19.078125 C 14.984375 -19.578125 14.90625 -20.09375 14.75 -20.625 C 14.601562 -21.164062 14.320312 -21.625 13.90625 -22 C 13.488281 -22.375 12.859375 -22.546875 12.015625 -22.515625 C 11.148438 -22.492188 10.363281 -22.242188 9.65625 -21.765625 C 8.945312 -21.296875 8.300781 -20.710938 7.71875 -20.015625 C 7.144531 -19.316406 6.609375 -18.617188 6.109375 -17.921875 C 5.609375 -17.234375 5.132812 -16.65625 4.6875 -16.1875 C 4.25 -15.726562 3.8125 -15.5 3.375 -15.5 C 3.101562 -15.5 2.859375 -15.601562 2.640625 -15.8125 C 2.429688 -16.03125 2.328125 -16.285156 2.328125 -16.578125 L 2.328125 -18.46875 C 2.328125 -19.050781 2.332031 -19.628906 2.34375 -20.203125 C 2.351562 -20.773438 2.570312 -21.265625 3 -21.671875 C 4.164062 -22.785156 5.59375 -23.519531 7.28125 -23.875 C 8.976562 -24.226562 10.726562 -24.40625 12.53125 -24.40625 C 14.476562 -24.40625 16.179688 -24.101562 17.640625 -23.5 C 19.097656 -22.894531 20.296875 -22.097656 21.234375 -21.109375 C 22.179688 -20.117188 22.890625 -19.019531 23.359375 -17.8125 C 23.828125 -16.601562 24.0625 -15.382812 24.0625 -14.15625 L 24.0625 -4.03125 C 24.0625 -3.050781 24.144531 -2.25 24.3125 -1.625 C 24.476562 -1 24.789062 -0.457031 25.25 0 L 16.890625 0 C 15.890625 0 15.300781 -0.488281 15.125 -1.46875 C 15.070312 -1.757812 14.972656 -2.03125 14.828125 -2.28125 C 14.679688 -2.53125 14.484375 -2.65625 14.234375 -2.65625 C 13.867188 -2.65625 13.507812 -2.492188 13.15625 -2.171875 C 12.800781 -1.859375 12.375 -1.488281 11.875 -1.0625 C 11.375 -0.644531 10.726562 -0.28125 9.9375 0.03125 C 9.15625 0.351562 8.148438 0.515625 6.921875 0.515625 C 5.835938 0.515625 4.832031 0.253906 3.90625 -0.265625 C 2.988281 -0.796875 2.25 -1.5 1.6875 -2.375 C 1.132812 -3.25 0.859375 -4.234375 0.859375 -5.328125 Z M 13.75 -15.359375 C 13.019531 -15.359375 12.285156 -15.078125 11.546875 -14.515625 C 10.804688 -13.960938 10.195312 -13.175781 9.71875 -12.15625 C 9.25 -11.144531 9.015625 -9.9375 9.015625 -8.53125 C 9.015625 -7.738281 9.109375 -6.984375 9.296875 -6.265625 C 9.492188 -5.546875 9.820312 -4.957031 10.28125 -4.5 C 10.75 -4.050781 11.40625 -3.828125 12.25 -3.828125 C 13.1875 -3.828125 13.878906 -4.195312 14.328125 -4.9375 C 14.785156 -5.675781 15.015625 -6.601562 15.015625 -7.71875 C 15.015625 -8.78125 15.007812 -9.703125 15 -10.484375 C 14.988281 -11.273438 14.984375 -12.191406 14.984375 -13.234375 C 14.984375 -14.015625 14.890625 -14.5625 14.703125 -14.875 C 14.523438 -15.195312 14.207031 -15.359375 13.75 -15.359375 Z M 13.75 -15.359375 "/></g></g></g><g fill="#000000" fill-opacity="1"><g transform="translate(177.63796, 49.164649)"><g><path d="M 0 -23.890625 C 0.6875 -23.890625 1.445312 -24.128906 2.28125 -24.609375 C 3.125 -25.085938 3.976562 -25.679688 4.84375 -26.390625 C 5.707031 -27.109375 6.523438 -27.820312 7.296875 -28.53125 C 8.078125 -29.238281 8.757812 -29.828125 9.34375 -30.296875 C 9.9375 -30.773438 10.367188 -31.015625 10.640625 -31.015625 C 11.078125 -31.015625 11.296875 -30.742188 11.296875 -30.203125 L 11.296875 -23.890625 L 14.234375 -23.890625 L 14.234375 -22.1875 L 11.296875 -22.1875 L 11.296875 -8.390625 C 11.296875 -7.503906 11.304688 -6.617188 11.328125 -5.734375 C 11.347656 -4.847656 11.472656 -4.050781 11.703125 -3.34375 C 11.929688 -2.632812 12.34375 -2.085938 12.9375 -1.703125 C 13.070312 -1.609375 13.210938 -1.5625 13.359375 -1.5625 C 13.503906 -1.5625 13.660156 -1.539062 13.828125 -1.5 C 13.773438 -1.09375 13.550781 -0.734375 13.15625 -0.421875 C 12.757812 -0.117188 12.285156 0.109375 11.734375 0.265625 C 11.191406 0.429688 10.644531 0.515625 10.09375 0.515625 C 8.457031 0.515625 7.144531 0.242188 6.15625 -0.296875 C 5.164062 -0.847656 4.414062 -1.582031 3.90625 -2.5 C 3.394531 -3.425781 3.050781 -4.457031 2.875 -5.59375 C 2.707031 -6.726562 2.625 -7.878906 2.625 -9.046875 L 2.625 -20 C 2.625 -20.34375 2.609375 -20.679688 2.578125 -21.015625 C 2.546875 -21.359375 2.421875 -21.640625 2.203125 -21.859375 C 1.984375 -22.078125 1.601562 -22.1875 1.0625 -22.1875 L 0 -22.1875 Z M 0 -23.890625 "/></g></g></g><g fill="#000000" fill-opacity="1"><g transform="translate(192.211257, 49.164649)"><g><path d="M 0 -20.234375 C 0 -20.421875 0.0546875 -20.535156 0.171875 -20.578125 C 0.285156 -20.617188 0.351562 -20.65625 0.375 -20.6875 C 0.644531 -20.820312 1.070312 -21.03125 1.65625 -21.3125 C 2.238281 -21.59375 2.898438 -21.910156 3.640625 -22.265625 C 4.378906 -22.617188 5.132812 -22.953125 5.90625 -23.265625 C 6.675781 -23.585938 7.390625 -23.859375 8.046875 -24.078125 C 8.710938 -24.296875 9.25 -24.40625 9.65625 -24.40625 C 10.15625 -24.40625 10.453125 -24.265625 10.546875 -23.984375 C 10.640625 -23.710938 10.6875 -23.40625 10.6875 -23.0625 L 10.6875 -4.03125 C 10.6875 -3.050781 10.769531 -2.25 10.9375 -1.625 C 11.101562 -1 11.414062 -0.457031 11.875 0 L 0.4375 0 C 0.894531 -0.457031 1.207031 -1 1.375 -1.625 C 1.550781 -2.25 1.640625 -3.050781 1.640625 -4.03125 L 1.640625 -17.125 C 1.640625 -17.257812 1.632812 -17.507812 1.625 -17.875 C 1.613281 -18.238281 1.53125 -18.609375 1.375 -18.984375 C 1.226562 -19.359375 0.941406 -19.617188 0.515625 -19.765625 C 0.460938 -19.785156 0.363281 -19.816406 0.21875 -19.859375 C 0.0703125 -19.898438 0 -20.023438 0 -20.234375 Z M 6.078125 -36.140625 C 7.578125 -36.140625 8.78125 -35.679688 9.6875 -34.765625 C 10.601562 -33.859375 11.0625 -32.65625 11.0625 -31.15625 C 11.0625 -29.65625 10.601562 -28.445312 9.6875 -27.53125 C 8.78125 -26.625 7.578125 -26.171875 6.078125 -26.171875 C 4.578125 -26.171875 3.367188 -26.625 2.453125 -27.53125 C 1.546875 -28.445312 1.09375 -29.65625 1.09375 -31.15625 C 1.09375 -32.65625 1.546875 -33.859375 2.453125 -34.765625 C 3.367188 -35.679688 4.578125 -36.140625 6.078125 -36.140625 Z M 6.078125 -36.140625 "/></g></g></g><g clip-path="url(#89ad1e160b)"><path fill="#000000" d="M 44.1875 55.441406 L 42.316406 55.441406 L 42.316406 50.910156 C 42.316406 50.285156 41.804688 49.777344 41.183594 49.777344 L 38.519531 49.777344 L 38.519531 43.332031 C 38.519531 41.316406 37.433594 39.433594 35.6875 38.425781 L 24.925781 32.21875 L 35.6875 26.011719 C 37.4375 25.003906 38.519531 23.125 38.519531 21.105469 L 38.519531 14.660156 L 41.183594 14.660156 C 41.804688 14.660156 42.316406 14.152344 42.316406 13.527344 L 42.316406 8.996094 L 44.1875 8.996094 C 44.808594 8.996094 45.320312 8.488281 45.320312 7.863281 C 45.320312 7.242188 44.808594 6.730469 44.1875 6.730469 L 1.132812 6.730469 C 0.511719 6.730469 0 7.242188 0 7.863281 C 0 8.488281 0.511719 8.996094 1.132812 8.996094 L 3.003906 8.996094 L 3.003906 13.527344 C 3.003906 14.152344 3.511719 14.660156 4.136719 14.660156 L 6.796875 14.660156 L 6.796875 21.105469 C 6.796875 23.125 7.886719 25.003906 9.628906 26.011719 L 20.394531 32.21875 L 9.628906 38.425781 C 7.878906 39.433594 6.796875 41.316406 6.796875 43.332031 L 6.796875 49.777344 L 4.136719 49.777344 C 3.511719 49.777344 3.003906 50.285156 3.003906 50.910156 L 3.003906 55.441406 L 1.132812 55.441406 C 0.511719 55.441406 0 55.949219 0 56.574219 C 0 57.195312 0.511719 57.707031 1.132812 57.707031 L 44.1875 57.707031 C 44.808594 57.707031 45.320312 57.195312 45.320312 56.574219 C 45.320312 55.949219 44.808594 55.441406 44.1875 55.441406 Z M 5.269531 8.996094 L 40.050781 8.996094 L 40.050781 12.394531 L 5.269531 12.394531 Z M 9.0625 21.105469 L 9.0625 14.660156 L 36.253906 14.660156 L 36.253906 21.105469 C 36.253906 22.320312 35.601562 23.445312 34.554688 24.050781 L 22.660156 30.910156 L 10.761719 24.050781 C 9.714844 23.445312 9.0625 22.320312 9.0625 21.105469 Z M 9.0625 43.332031 C 9.0625 42.121094 9.714844 40.992188 10.761719 40.386719 L 22.660156 33.523438 L 34.554688 40.386719 C 35.601562 40.992188 36.253906 42.121094 36.253906 43.332031 L 36.253906 49.777344 L 9.0625 49.777344 Z M 5.269531 55.441406 L 5.269531 52.042969 L 40.050781 52.042969 L 40.050781 55.441406 Z M 19.097656 25.441406 C 18.886719 25.789062 18.511719 25.988281 18.128906 25.988281 C 17.929688 25.988281 17.726562 25.9375 17.542969 25.824219 L 12.429688 22.753906 C 11.75 22.347656 11.328125 21.605469 11.328125 20.8125 L 11.328125 18.058594 C 11.328125 17.4375 11.839844 16.925781 12.460938 16.925781 C 13.085938 16.925781 13.59375 17.4375 13.59375 18.058594 L 13.59375 20.816406 L 18.710938 23.886719 C 19.25 24.207031 19.417969 24.902344 19.097656 25.441406 Z M 33.988281 43.621094 L 33.988281 46.378906 C 33.988281 47 33.480469 47.511719 32.855469 47.511719 C 32.234375 47.511719 31.722656 47 31.722656 46.378906 L 31.722656 43.621094 L 26.609375 40.550781 C 26.070312 40.226562 25.898438 39.53125 26.214844 39 C 26.539062 38.460938 27.238281 38.289062 27.769531 38.609375 L 32.882812 41.679688 C 33.570312 42.085938 33.988281 42.832031 33.988281 43.621094 Z M 33.988281 43.621094 " fill-opacity="1" fill-rule="nonzero"/></g><g clip-path="url(#1f15f89cde)"><path fill="#a6a6a6" d="M 44.175781 55.441406 L 42.308594 55.441406 L 42.308594 50.910156 C 42.308594 50.285156 41.796875 49.777344 41.175781 49.777344 L 38.511719 49.777344 L 38.511719 43.332031 C 38.511719 41.316406 37.425781 39.433594 35.683594 38.425781 L 24.921875 32.21875 L 35.683594 26.011719 C 37.433594 25.003906 38.511719 23.125 38.511719 21.105469 L 38.511719 14.660156 L 41.175781 14.660156 C 41.796875 14.660156 42.308594 14.152344 42.308594 13.527344 L 42.308594 8.996094 L 44.175781 8.996094 C 44.800781 8.996094 45.308594 8.488281 45.308594 7.863281 C 45.308594 7.242188 44.800781 6.730469 44.175781 6.730469 L 1.132812 6.730469 C 0.507812 6.730469 0 7.242188 0 7.863281 C 0 8.488281 0.507812 8.996094 1.132812 8.996094 L 3 8.996094 L 3 13.527344 C 3 14.152344 3.511719 14.660156 4.132812 14.660156 L 6.796875 14.660156 L 6.796875 21.105469 C 6.796875 23.125 7.882812 25.003906 9.628906 26.011719 L 20.390625 32.21875 L 9.628906 38.425781 C 7.878906 39.433594 6.796875 41.316406 6.796875 43.332031 L 6.796875 49.777344 L 4.132812 49.777344 C 3.511719 49.777344 3 50.285156 3 50.910156 L 3 55.441406 L 1.132812 55.441406 C 0.507812 55.441406 0 55.949219 0 56.574219 C 0 57.195312 0.507812 57.707031 1.132812 57.707031 L 44.175781 57.707031 C 44.800781 57.707031 45.308594 57.195312 45.308594 56.574219 C 45.308594 55.949219 44.800781 55.441406 44.175781 55.441406 Z M 5.265625 8.996094 L 40.042969 8.996094 L 40.042969 12.394531 L 5.265625 12.394531 Z M 9.0625 21.105469 L 9.0625 14.660156 L 36.25 14.660156 L 36.25 21.105469 C 36.25 22.320312 35.597656 23.445312 34.550781 24.050781 L 22.65625 30.910156 L 10.761719 24.050781 C 9.714844 23.445312 9.0625 22.320312 9.0625 21.105469 Z M 9.0625 43.332031 C 9.0625 42.121094 9.714844 40.992188 10.761719 40.386719 L 22.65625 33.523438 L 34.550781 40.386719 C 35.597656 40.992188 36.25 42.121094 36.25 43.332031 L 36.25 49.777344 L 9.0625 49.777344 Z M 5.265625 55.441406 L 5.265625 52.042969 L 40.042969 52.042969 L 40.042969 55.441406 Z M 19.09375 25.441406 C 18.882812 25.789062 18.507812 25.988281 18.125 25.988281 C 17.925781 25.988281 17.722656 25.9375 17.539062 25.824219 L 12.425781 22.753906 C 11.746094 22.347656 11.328125 21.605469 11.328125 20.8125 L 11.328125 18.058594 C 11.328125 17.4375 11.835938 16.925781 12.460938 16.925781 C 13.082031 16.925781 13.59375 17.4375 13.59375 18.058594 L 13.59375 20.816406 L 18.707031 23.886719 C 19.246094 24.207031 19.414062 24.902344 19.09375 25.441406 Z M 33.984375 43.621094 L 33.984375 46.378906 C 33.984375 47 33.472656 47.511719 32.851562 47.511719 C 32.226562 47.511719 31.71875 47 31.71875 46.378906 L 31.71875 43.621094 L 26.601562 40.550781 C 26.066406 40.226562 25.894531 39.53125 26.210938 39 C 26.535156 38.460938 27.230469 38.289062 27.765625 38.609375 L 32.878906 41.679688 C 33.5625 42.085938 33.984375 42.832031 33.984375 43.621094 Z M 33.984375 43.621094 " fill-opacity="1" fill-rule="nonzero"/></g><g clip-path="url(#d7f6a59cd1)"><path fill="#a6a6a6" d="M 44.175781 55.441406 L 42.308594 55.441406 L 42.308594 50.910156 C 42.308594 50.285156 41.796875 49.777344 41.175781 49.777344 L 38.511719 49.777344 L 38.511719 43.332031 C 38.511719 41.316406 37.425781 39.433594 35.683594 38.425781 L 24.921875 32.21875 L 35.683594 26.011719 C 37.433594 25.003906 38.511719 23.125 38.511719 21.105469 L 38.511719 14.660156 L 41.175781 14.660156 C 41.796875 14.660156 42.308594 14.152344 42.308594 13.527344 L 42.308594 8.996094 L 44.175781 8.996094 C 44.800781 8.996094 45.308594 8.488281 45.308594 7.863281 C 45.308594 7.242188 44.800781 6.730469 44.175781 6.730469 L 1.132812 6.730469 C 0.507812 6.730469 0 7.242188 0 7.863281 C 0 8.488281 0.507812 8.996094 1.132812 8.996094 L 3 8.996094 L 3 13.527344 C 3 14.152344 3.511719 14.660156 4.132812 14.660156 L 6.796875 14.660156 L 6.796875 21.105469 C 6.796875 23.125 7.882812 25.003906 9.628906 26.011719 L 20.390625 32.21875 L 9.628906 38.425781 C 7.878906 39.433594 6.796875 41.316406 6.796875 43.332031 L 6.796875 49.777344 L 4.132812 49.777344 C 3.511719 49.777344 3 50.285156 3 50.910156 L 3 55.441406 L 1.132812 55.441406 C 0.507812 55.441406 0 55.949219 0 56.574219 C 0 57.195312 0.507812 57.707031 1.132812 57.707031 L 44.175781 57.707031 C 44.800781 57.707031 45.308594 57.195312 45.308594 56.574219 C 45.308594 55.949219 44.800781 55.441406 44.175781 55.441406 Z M 5.265625 8.996094 L 40.042969 8.996094 L 40.042969 12.394531 L 5.265625 12.394531 Z M 9.0625 21.105469 L 9.0625 14.660156 L 36.25 14.660156 L 36.25 21.105469 C 36.25 22.320312 35.597656 23.445312 34.550781 24.050781 L 22.65625 30.910156 L 10.761719 24.050781 C 9.714844 23.445312 9.0625 22.320312 9.0625 21.105469 Z M 9.0625 43.332031 C 9.0625 42.121094 9.714844 40.992188 10.761719 40.386719 L 22.65625 33.523438 L 34.550781 40.386719 C 35.597656 40.992188 36.25 42.121094 36.25 43.332031 L 36.25 49.777344 L 9.0625 49.777344 Z M 5.265625 55.441406 L 5.265625 52.042969 L 40.042969 52.042969 L 40.042969 55.441406 Z M 19.09375 25.441406 C 18.882812 25.789062 18.507812 25.988281 18.125 25.988281 C 17.925781 25.988281 17.722656 25.9375 17.539062 25.824219 L 12.425781 22.753906 C 11.746094 22.347656 11.328125 21.605469 11.328125 20.8125 L 11.328125 18.058594 C 11.328125 17.4375 11.835938 16.925781 12.460938 16.925781 C 13.082031 16.925781 13.59375 17.4375 13.59375 18.058594 L 13.59375 20.816406 L 18.707031 23.886719 C 19.246094 24.207031 19.414062 24.902344 19.09375 25.441406 Z M 33.984375 43.621094 L 33.984375 46.378906 C 33.984375 47 33.472656 47.511719 32.851562 47.511719 C 32.226562 47.511719 31.71875 47 31.71875 46.378906 L 31.71875 43.621094 L 26.601562 40.550781 C 26.066406 40.226562 25.894531 39.53125 26.210938 39 C 26.535156 38.460938 27.230469 38.289062 27.765625 38.609375 L 32.878906 41.679688 C 33.5625 42.085938 33.984375 42.832031 33.984375 43.621094 Z M 33.984375 43.621094 " fill-opacity="1" fill-rule="nonzero"/></g><g clip-path="url(#3ea8b7f5a2)"><path fill="#a6a6a6" d="M 44.175781 55.351562 L 42.308594 55.351562 L 42.308594 50.820312 C 42.308594 50.195312 41.796875 49.6875 41.175781 49.6875 L 38.511719 49.6875 L 38.511719 43.242188 C 38.511719 41.222656 37.425781 39.34375 35.683594 38.335938 L 24.921875 32.128906 L 35.683594 25.921875 C 37.433594 24.914062 38.511719 23.03125 38.511719 21.015625 L 38.511719 14.570312 L 41.175781 14.570312 C 41.796875 14.570312 42.308594 14.0625 42.308594 13.4375 L 42.308594 8.90625 L 44.175781 8.90625 C 44.800781 8.90625 45.308594 8.398438 45.308594 7.773438 C 45.308594 7.152344 44.800781 6.640625 44.175781 6.640625 L 1.132812 6.640625 C 0.507812 6.640625 0 7.152344 0 7.773438 C 0 8.398438 0.507812 8.90625 1.132812 8.90625 L 3 8.90625 L 3 13.4375 C 3 14.0625 3.511719 14.570312 4.132812 14.570312 L 6.796875 14.570312 L 6.796875 21.015625 C 6.796875 23.03125 7.882812 24.914062 9.628906 25.921875 L 20.390625 32.128906 L 9.628906 38.335938 C 7.878906 39.34375 6.796875 41.222656 6.796875 43.242188 L 6.796875 49.6875 L 4.132812 49.6875 C 3.511719 49.6875 3 50.195312 3 50.820312 L 3 55.351562 L 1.132812 55.351562 C 0.507812 55.351562 0 55.859375 0 56.484375 C 0 57.105469 0.507812 57.617188 1.132812 57.617188 L 44.175781 57.617188 C 44.800781 57.617188 45.308594 57.105469 45.308594 56.484375 C 45.308594 55.859375 44.800781 55.351562 44.175781 55.351562 Z M 5.265625 8.90625 L 40.042969 8.90625 L 40.042969 12.304688 L 5.265625 12.304688 Z M 9.0625 21.015625 L 9.0625 14.570312 L 36.25 14.570312 L 36.25 21.015625 C 36.25 22.226562 35.597656 23.355469 34.550781 23.960938 L 22.65625 30.820312 L 10.761719 23.960938 C 9.714844 23.355469 9.0625 22.226562 9.0625 21.015625 Z M 9.0625 43.242188 C 9.0625 42.027344 9.714844 40.902344 10.761719 40.296875 L 22.65625 33.429688 L 34.550781 40.296875 C 35.597656 40.902344 36.25 42.027344 36.25 43.242188 L 36.25 49.6875 L 9.0625 49.6875 Z M 5.265625 55.351562 L 5.265625 51.953125 L 40.042969 51.953125 L 40.042969 55.351562 Z M 19.09375 25.347656 C 18.882812 25.699219 18.507812 25.898438 18.125 25.898438 C 17.925781 25.898438 17.722656 25.847656 17.539062 25.734375 L 12.425781 22.664062 C 11.746094 22.257812 11.328125 21.515625 11.328125 20.722656 L 11.328125 17.96875 C 11.328125 17.347656 11.835938 16.835938 12.460938 16.835938 C 13.082031 16.835938 13.59375 17.347656 13.59375 17.96875 L 13.59375 20.726562 L 18.707031 23.796875 C 19.246094 24.113281 19.414062 24.8125 19.09375 25.347656 Z M 33.984375 43.53125 L 33.984375 46.289062 C 33.984375 46.910156 33.472656 47.421875 32.851562 47.421875 C 32.226562 47.421875 31.71875 46.910156 31.71875 46.289062 L 31.71875 43.53125 L 26.601562 40.460938 C 26.066406 40.136719 25.894531 39.441406 26.210938 38.90625 C 26.535156 38.371094 27.230469 38.199219 27.765625 38.515625 L 32.878906 41.585938 C 33.5625 41.996094 33.984375 42.742188 33.984375 43.53125 Z M 33.984375 43.53125 " fill-opacity="1" fill-rule="nonzero"/></g><g clip-path="url(#94ef3b6807)"><path fill="#a6a6a6" d="M 44.175781 55.351562 L 42.308594 55.351562 L 42.308594 50.820312 C 42.308594 50.195312 41.796875 49.6875 41.175781 49.6875 L 38.511719 49.6875 L 38.511719 43.242188 C 38.511719 41.222656 37.425781 39.34375 35.683594 38.335938 L 24.921875 32.128906 L 35.683594 25.921875 C 37.433594 24.914062 38.511719 23.03125 38.511719 21.015625 L 38.511719 14.570312 L 41.175781 14.570312 C 41.796875 14.570312 42.308594 14.0625 42.308594 13.4375 L 42.308594 8.90625 L 44.175781 8.90625 C 44.800781 8.90625 45.308594 8.398438 45.308594 7.773438 C 45.308594 7.152344 44.800781 6.640625 44.175781 6.640625 L 1.132812 6.640625 C 0.507812 6.640625 0 7.152344 0 7.773438 C 0 8.398438 0.507812 8.90625 1.132812 8.90625 L 3 8.90625 L 3 13.4375 C 3 14.0625 3.511719 14.570312 4.132812 14.570312 L 6.796875 14.570312 L 6.796875 21.015625 C 6.796875 23.03125 7.882812 24.914062 9.628906 25.921875 L 20.390625 32.128906 L 9.628906 38.335938 C 7.878906 39.34375 6.796875 41.222656 6.796875 43.242188 L 6.796875 49.6875 L 4.132812 49.6875 C 3.511719 49.6875 3 50.195312 3 50.820312 L 3 55.351562 L 1.132812 55.351562 C 0.507812 55.351562 0 55.859375 0 56.484375 C 0 57.105469 0.507812 57.617188 1.132812 57.617188 L 44.175781 57.617188 C 44.800781 57.617188 45.308594 57.105469 45.308594 56.484375 C 45.308594 55.859375 44.800781 55.351562 44.175781 55.351562 Z M 5.265625 8.90625 L 40.042969 8.90625 L 40.042969 12.304688 L 5.265625 12.304688 Z M 9.0625 21.015625 L 9.0625 14.570312 L 36.25 14.570312 L 36.25 21.015625 C 36.25 22.226562 35.597656 23.355469 34.550781 23.960938 L 22.65625 30.820312 L 10.761719 23.960938 C 9.714844 23.355469 9.0625 22.226562 9.0625 21.015625 Z M 9.0625 43.242188 C 9.0625 42.027344 9.714844 40.902344 10.761719 40.296875 L 22.65625 33.429688 L 34.550781 40.296875 C 35.597656 40.902344 36.25 42.027344 36.25 43.242188 L 36.25 49.6875 L 9.0625 49.6875 Z M 5.265625 55.351562 L 5.265625 51.953125 L 40.042969 51.953125 L 40.042969 55.351562 Z M 19.09375 25.347656 C 18.882812 25.699219 18.507812 25.898438 18.125 25.898438 C 17.925781 25.898438 17.722656 25.847656 17.539062 25.734375 L 12.425781 22.664062 C 11.746094 22.257812 11.328125 21.515625 11.328125 20.722656 L 11.328125 17.96875 C 11.328125 17.347656 11.835938 16.835938 12.460938 16.835938 C 13.082031 16.835938 13.59375 17.347656 13.59375 17.96875 L 13.59375 20.726562 L 18.707031 23.796875 C 19.246094 24.113281 19.414062 24.8125 19.09375 25.347656 Z M 33.984375 43.53125 L 33.984375 46.289062 C 33.984375 46.910156 33.472656 47.421875 32.851562 47.421875 C 32.226562 47.421875 31.71875 46.910156 31.71875 46.289062 L 31.71875 43.53125 L 26.601562 40.460938 C 26.066406 40.136719 25.894531 39.441406 26.210938 38.90625 C 26.535156 38.371094 27.230469 38.199219 27.765625 38.515625 L 32.878906 41.585938 C 33.5625 41.996094 33.984375 42.742188 33.984375 43.53125 Z M 33.984375 43.53125 " fill-opacity="1" fill-rule="nonzero"/></g><g clip-path="url(#2c93fa6113)"><path fill="#a6a6a6" d="M 44.140625 55.4375 L 42.269531 55.4375 L 42.269531 50.90625 C 42.269531 50.28125 41.761719 49.773438 41.136719 49.773438 L 38.476562 49.773438 L 38.476562 43.328125 C 38.476562 41.3125 37.390625 39.429688 35.644531 38.421875 L 24.882812 32.214844 L 35.644531 26.007812 C 37.394531 25 38.476562 23.117188 38.476562 21.101562 L 38.476562 14.65625 L 41.136719 14.65625 C 41.761719 14.65625 42.269531 14.148438 42.269531 13.523438 L 42.269531 8.992188 L 44.140625 8.992188 C 44.761719 8.992188 45.273438 8.484375 45.273438 7.859375 C 45.273438 7.238281 44.761719 6.726562 44.140625 6.726562 L 1.09375 6.726562 C 0.472656 6.726562 -0.0390625 7.238281 -0.0390625 7.859375 C -0.0390625 8.484375 0.472656 8.992188 1.09375 8.992188 L 2.964844 8.992188 L 2.964844 13.523438 C 2.964844 14.148438 3.472656 14.65625 4.097656 14.65625 L 6.757812 14.65625 L 6.757812 21.101562 C 6.757812 23.117188 7.847656 25 9.589844 26.007812 L 20.351562 32.214844 L 9.589844 38.421875 C 7.839844 39.429688 6.757812 41.3125 6.757812 43.328125 L 6.757812 49.773438 L 4.097656 49.773438 C 3.472656 49.773438 2.964844 50.28125 2.964844 50.90625 L 2.964844 55.4375 L 1.09375 55.4375 C 0.472656 55.4375 -0.0390625 55.945312 -0.0390625 56.570312 C -0.0390625 57.191406 0.472656 57.703125 1.09375 57.703125 L 44.140625 57.703125 C 44.761719 57.703125 45.273438 57.191406 45.273438 56.570312 C 45.273438 55.945312 44.761719 55.4375 44.140625 55.4375 Z M 5.230469 8.992188 L 40.003906 8.992188 L 40.003906 12.390625 L 5.230469 12.390625 Z M 9.023438 21.101562 L 9.023438 14.65625 L 36.210938 14.65625 L 36.210938 21.101562 C 36.210938 22.316406 35.558594 23.441406 34.511719 24.046875 L 22.617188 30.90625 L 10.722656 24.046875 C 9.675781 23.441406 9.023438 22.316406 9.023438 21.101562 Z M 9.023438 43.328125 C 9.023438 42.113281 9.675781 40.988281 10.722656 40.382812 L 22.617188 33.515625 L 34.511719 40.382812 C 35.558594 40.988281 36.210938 42.113281 36.210938 43.328125 L 36.210938 49.773438 L 9.023438 49.773438 Z M 5.230469 55.4375 L 5.230469 52.039062 L 40.003906 52.039062 L 40.003906 55.4375 Z M 19.054688 25.433594 C 18.847656 25.785156 18.472656 25.984375 18.085938 25.984375 C 17.886719 25.984375 17.683594 25.933594 17.503906 25.820312 L 12.390625 22.75 C 11.710938 22.34375 11.289062 21.601562 11.289062 20.808594 L 11.289062 18.054688 C 11.289062 17.433594 11.800781 16.921875 12.421875 16.921875 C 13.046875 16.921875 13.554688 17.433594 13.554688 18.054688 L 13.554688 20.8125 L 18.671875 23.882812 C 19.207031 24.199219 19.378906 24.898438 19.054688 25.433594 Z M 33.945312 43.617188 L 33.945312 46.375 C 33.945312 46.996094 33.4375 47.507812 32.8125 47.507812 C 32.191406 47.507812 31.679688 46.996094 31.679688 46.375 L 31.679688 43.617188 L 26.566406 40.546875 C 26.027344 40.222656 25.859375 39.527344 26.175781 38.996094 C 26.496094 38.457031 27.195312 38.285156 27.726562 38.601562 L 32.839844 41.671875 C 33.527344 42.082031 33.945312 42.828125 33.945312 43.617188 Z M 33.945312 43.617188 " fill-opacity="1" fill-rule="nonzero"/></g><g clip-path="url(#1516eeaf1c)"><path fill="#a6a6a6" d="M 44.152344 55.429688 L 42.28125 55.429688 L 42.28125 50.898438 C 42.28125 50.273438 41.773438 49.765625 41.148438 49.765625 L 38.488281 49.765625 L 38.488281 43.320312 C 38.488281 41.304688 37.398438 39.421875 35.65625 38.414062 L 24.894531 32.207031 L 35.65625 26 C 37.40625 24.992188 38.488281 23.109375 38.488281 21.09375 L 38.488281 14.648438 L 41.148438 14.648438 C 41.773438 14.648438 42.28125 14.140625 42.28125 13.515625 L 42.28125 8.984375 L 44.152344 8.984375 C 44.773438 8.984375 45.285156 8.476562 45.285156 7.851562 C 45.285156 7.230469 44.773438 6.71875 44.152344 6.71875 L 1.105469 6.71875 C 0.484375 6.71875 -0.0273438 7.230469 -0.0273438 7.851562 C -0.0273438 8.476562 0.484375 8.984375 1.105469 8.984375 L 2.976562 8.984375 L 2.976562 13.515625 C 2.976562 14.140625 3.484375 14.648438 4.109375 14.648438 L 6.769531 14.648438 L 6.769531 21.09375 C 6.769531 23.109375 7.859375 24.992188 9.601562 26 L 20.363281 32.207031 L 9.601562 38.414062 C 7.851562 39.421875 6.769531 41.304688 6.769531 43.320312 L 6.769531 49.765625 L 4.109375 49.765625 C 3.484375 49.765625 2.976562 50.273438 2.976562 50.898438 L 2.976562 55.429688 L 1.105469 55.429688 C 0.484375 55.429688 -0.0273438 55.9375 -0.0273438 56.5625 C -0.0273438 57.183594 0.484375 57.695312 1.105469 57.695312 L 44.152344 57.695312 C 44.773438 57.695312 45.285156 57.183594 45.285156 56.5625 C 45.285156 55.9375 44.773438 55.429688 44.152344 55.429688 Z M 5.242188 8.984375 L 40.015625 8.984375 L 40.015625 12.382812 L 5.242188 12.382812 Z M 9.035156 21.09375 L 9.035156 14.648438 L 36.222656 14.648438 L 36.222656 21.09375 C 36.222656 22.304688 35.570312 23.433594 34.523438 24.039062 L 22.628906 30.898438 L 10.734375 24.039062 C 9.6875 23.433594 9.035156 22.304688 9.035156 21.09375 Z M 9.035156 43.320312 C 9.035156 42.105469 9.6875 40.980469 10.734375 40.375 L 22.628906 33.507812 L 34.523438 40.375 C 35.570312 40.980469 36.222656 42.105469 36.222656 43.320312 L 36.222656 49.765625 L 9.035156 49.765625 Z M 5.242188 55.429688 L 5.242188 52.03125 L 40.015625 52.03125 L 40.015625 55.429688 Z M 19.066406 25.425781 C 18.855469 25.777344 18.484375 25.976562 18.097656 25.976562 C 17.898438 25.976562 17.695312 25.925781 17.515625 25.8125 L 12.398438 22.742188 C 11.71875 22.335938 11.300781 21.59375 11.300781 20.800781 L 11.300781 18.046875 C 11.300781 17.425781 11.8125 16.914062 12.433594 16.914062 C 13.058594 16.914062 13.566406 17.425781 13.566406 18.046875 L 13.566406 20.804688 L 18.679688 23.875 C 19.21875 24.191406 19.390625 24.890625 19.066406 25.425781 Z M 33.957031 43.609375 L 33.957031 46.367188 C 33.957031 46.988281 33.445312 47.5 32.824219 47.5 C 32.199219 47.5 31.691406 46.988281 31.691406 46.367188 L 31.691406 43.609375 L 26.578125 40.539062 C 26.039062 40.214844 25.867188 39.519531 26.1875 38.988281 C 26.507812 38.449219 27.207031 38.277344 27.738281 38.59375 L 32.851562 41.664062 C 33.539062 42.074219 33.957031 42.820312 33.957031 43.609375 Z M 33.957031 43.609375 " fill-opacity="1" fill-rule="nonzero"/></g><g clip-path="url(#d04c7e4622)"><path fill="#a6a6a6" d="M 16.109375 34.714844 L 20.277344 34.714844 C 20.277344 33.882812 20.277344 33.050781 20.273438 32.21875 C 18.886719 33.050781 17.5 33.882812 16.109375 34.714844 " fill-opacity="1" fill-rule="nonzero"/></g><g clip-path="url(#7f73a3c7f7)"><g clip-path="url(#bdaf4216e6)"><g clip-path="url(#8fbbba9973)"><path fill="#a6a6a6" d="M 20.285156 32.070312 L 22.90625 33.589844 L 20.855469 34.152344 Z M 20.285156 32.070312 " fill-opacity="1" fill-rule="nonzero"/></g></g></g><g clip-path="url(#9c903a59a0)"><g clip-path="url(#752fab201a)"><g clip-path="url(#ba252652e2)"><path fill="#a6a6a6" d="M 18.992188 34.429688 L 20.421875 32.078125 L 20.894531 33.949219 Z M 18.992188 34.429688 " fill-opacity="1" fill-rule="nonzero"/></g></g></g><g clip-path="url(#d28782be3b)"><g clip-path="url(#6cb77705bc)"><g clip-path="url(#edf30caf45)"><path fill="#a6a6a6" d="M 24.640625 32.324219 L 22.191406 30.859375 L 24.128906 30.351562 Z M 24.640625 32.324219 " fill-opacity="1" fill-rule="nonzero"/></g></g></g><g clip-path="url(#0efdaa593d)"><g clip-path="url(#b1f3be4cd1)"><g clip-path="url(#d9b9f6e6a0)"><path fill="#a6a6a6" d="M 22.769531 30.785156 L 25.105469 29.402344 L 24.644531 31.25 Z M 22.769531 30.785156 " fill-opacity="1" fill-rule="nonzero"/></g></g></g><g clip-path="url(#b24ee38bf1)"><path fill="#a6a6a6" d="M 24.308594 30.859375 L 24.984375 30.859375 L 24.984375 32.074219 L 24.308594 32.074219 Z M 24.308594 30.859375 " fill-opacity="1" fill-rule="nonzero"/></g></svg>